<?xml version="1.0" encoding="UTF-8"?>
<!-- Created with Inkscape (http://www.inkscape.org/) -->
<svg width="7.9375mm" height="9.0418mm" version="1.1" viewBox="0 0 7.9375 9.0418" xml:space="preserve" xmlns="http://www.w3.org/2000/svg"><g transform="translate(231.98 -310.32)"><text x="933.88342" y="152.41327" fill="#784421" font-family="Monospace" font-size="12.7px" stroke-linecap="round" stroke-linejoin="round" stroke-width="2.967" style="paint-order:normal" xml:space="preserve"><tspan x="933.88342" y="152.41327" stroke-width="2.967"/></text><g transform="matrix(.13784 0 0 .13784 -200 267.54)"><g stroke-linecap="round" stroke-linejoin="round"><rect x="-221.91" y="313.82" width="18.719" height="58.596" rx="1.9793" ry="1.6678" fill="#784421" stroke="#000" stroke-width="7" style="paint-order:markers stroke fill"/><path d="m-215.88 368.51v-51.777" fill="#fff" stroke="#6b3c1d" stroke-width="3.0633" style="paint-order:fill markers stroke"/><rect x="-228.48" y="322.02" width="50.585" height="28.441" ry="3.5692" fill="#999" stroke="#000" stroke-width="7" style="paint-order:markers stroke fill"/></g><path d="m-206.36 350.2s-16.801 1.9445-19.945-0.4596c-2.6569-2.0316-4.504-20.24-1.1979-26.412 0.6061-1.1314 2.1435-1.2264 3.0603-1.4269 5.9178-1.2945 5.1781-0.3698 5.1781-0.3698z" fill="#6a6a6a" fill-opacity=".15184" style="paint-order:markers stroke fill"/><path d="m-199.95 322.3s16.801-1.9445 19.945 0.4596c2.6568 2.0316 4.504 20.24 1.1979 26.412-0.6061 1.1314-2.1435 1.2264-3.0603 1.4269-5.9178 1.2945-5.1781 0.3698-5.1781 0.3698z" fill="#fff" fill-opacity=".088928" style="paint-order:markers stroke fill"/><g><rect x="-216.91" y="322.78" width="7.3229" height="27.722" ry="3.2692" fill="#a38839" style="paint-order:markers stroke fill"/><circle transform="scale(1,-1)" cx="-213.51" cy="-331.15" r="2.0923" fill="#7d682c" style="paint-order:markers stroke fill"/><circle cx="-213.58" cy="340.69" r="2.0923" fill="#7d682c" style="paint-order:markers stroke fill"/></g></g></g></svg>
